<svg width="64" height="64" viewBox="0 0 64 64" fill="none" xmlns="http://www.w3.org/2000/svg">
<rect width="64" height="64" fill="black"/>
<path d="M16.8308 49V15.688H43.5668V18.376L33.6308 32.344L43.9508 42.856V41.8C43.9508 40.168 44.1428 38.184 44.5268 35.848L45.9668 37.144C46.2228 41.208 46.9588 44.68 48.1748 47.56L47.5988 48.52C47.0228 48.392 46.4468 48.296 45.8708 48.232C45.3268 48.168 44.7508 48.136 44.1428 48.136C42.3508 48.136 40.4628 48.424 38.4788 49L37.0388 47.608C39.1508 46.296 40.9268 45.432 42.3668 45.016L30.1748 32.728L40.2548 18.568H19.7108V49H16.8308Z" fill="#FF0022"/>
</svg>
